<svg  version="1.1"  width="80" height="80" viewBox="0 0 1000 588"><g transform="matrix(1,0,0,1,-0.6060606060606233,0.043679920053023125)"><svg viewBox="0 0 396 233" data-background-color="#ffffff" preserveAspectRatio="xMidYMid meet" height="588" width="1000" ><g id="tight-bounds" transform="matrix(1,0,0,1,0.2400000000000091,-0.017308539748896123)"><svg viewBox="0 0 395.52 233.0346170794978" height="233.0346170794978" width="395.52"><g><svg viewBox="0 0 395.52 233.0346170794978" height="233.0346170794978" width="395.52"><g><svg viewBox="0 0 395.52 233.0346170794978" height="233.0346170794978" width="395.52"><g><svg viewBox="0 0 395.52 233.0346170794978" height="233.0346170794978" width="395.52"><g transform="matrix(1,0,0,1,0,139.13910763776545)"><svg viewBox="0 0 395.52 93.89550944173234" height="93.89550944173234" width="395.52"><g><svg viewBox="0 0 395.52 93.89550944173234" height="93.89550944173234" width="395.52"><g><svg viewBox="0 0 395.52 64.24929133858267" height="64.24929133858267" width="395.52"><g transform="matrix(1,0,0,1,0,0)"><svg width="395.52" viewBox="2.5 -35.9 232.93 37.116667666655" height="64.24929133858267" data-palette-color="#000000"><g class="undefined-text-0" data-fill-palette-color="primary" id="text-0"><path d="M27.55-13.05Q27.45-14.95 25.95-15.85L25.95-15.85Q24.75-15.55 24-15.1 23.25-14.65 22.9-14.23 22.55-13.8 21.65-12.6L21.65-12.6Q21.35-12.2 21.03-11.5 20.7-10.8 20.65-10.65L20.65-10.65Q20.5-10.3 20.5-9.9L20.5-9.9Q20.5-9.6 20.63-8.97 20.75-8.35 20.7-8L20.7-8Q20.65-7.25 20.75-5.65L20.75-5.65 20.8-4.1Q20.8-3.4 20.75-3.05L20.75-3.05Q20.65-2.25 20.25-1.65 19.85-1.05 19.15-1.05L19.15-1.05Q18.9-1.05 18.5-1.2L18.5-1.2Q18.15-1.3 17.35-1.55 16.55-1.8 16.1-2.33 15.65-2.85 15.65-3.85L15.65-3.85Q15.65-6.45 15.15-11.65L15.15-11.65Q15.05-12.2 14.95-13.5L14.95-13.5Q14.9-14.05 14.45-14.35 14-14.65 13.35-14.65L13.35-14.65Q12.3-14.65 11.75-14.1L11.75-14.1Q9.45-12.8 8.4-11.15 7.35-9.5 7.35-6.9L7.35-6.9 7.4-5.2Q7.4-3.55 6.55-2.15L6.55-2.15Q6.3-1.7 5.53-1.38 4.75-1.05 4.2-1.15L4.2-1.15Q3.7-1.2 3.18-1.83 2.65-2.45 2.65-2.95L2.65-2.95Q2.5-7.15 2.5-11.3L2.5-11.3Q2.5-15.05 2.6-16.9L2.6-16.9Q2.65-17.85 3.25-18.4 3.85-18.95 4.7-18.95L4.7-18.95Q5.8-18.95 6.65-18.15L6.65-18.15Q7.1-17.3 7.4-16.93 7.7-16.55 8.05-16.55L8.05-16.55Q8.35-16.55 8.75-16.88 9.15-17.2 9.85-17.95L9.85-17.95Q11.5-19.75 13.3-19.75L13.3-19.75Q15.25-19.75 18-17.8L18-17.8Q18.2-17.65 18.55-17.38 18.9-17.1 19.15-17.1L19.15-17.1Q19.5-17.1 20.25-17.9L20.25-17.9Q23.05-20.5 27.35-20.75L27.35-20.75Q28.7-20.8 30.08-19.73 31.45-18.65 31.8-17.15L31.8-17.15Q32.4-14.6 32.65-11.15L32.65-11.15Q32.95-5.95 32.9-3.35L32.9-3.35Q32.85-2.15 32.25-1.48 31.65-0.8 30.7-0.8L30.7-0.8Q29.95-0.8 29.1-1.25L29.1-1.25Q28.75-1.4 28.45-1.8 28.15-2.2 28.15-2.5L28.15-2.5 27.85-7.8Q27.8-8.65 27.75-9.98 27.7-11.3 27.55-13.05L27.55-13.05ZM53.15-2.55Q52.7-2.75 52.25-2.75L52.25-2.75Q51.8-2.75 51.47-2.53 51.15-2.3 50.75-1.85L50.75-1.85Q50.15-1.25 49.5-0.85L49.5-0.85Q48.9-0.5 47.3-0.2L47.3-0.2Q46.6-0.1 46.15-0.1L46.15-0.1Q44.05-0.1 41.77-1.03 39.5-1.95 38.55-3.25L38.55-3.25Q37.55-4.65 37.6-6.25L37.6-6.25Q37.65-8.65 39.6-11.05L39.6-11.05Q41.5-13.35 43.07-14.3 44.65-15.25 47.4-15.5L47.4-15.5Q48-15.5 49.12-15.7 50.25-15.9 50.25-16.25L50.25-16.25Q50.25-16.95 49.62-17.53 49-18.1 47.1-18.1L47.1-18.1Q46.4-18.1 45-18L45-18Q43.6-17.9 43.05-17.9L43.05-17.9Q41.35-17.9 40.6-18.45L40.6-18.45Q40.4-18.55 40.4-19.4L40.4-19.4Q40.4-20.9 41.45-21.3L41.45-21.3Q43.6-22.1 45.9-22.15L45.9-22.15Q48.8-22.15 51.27-20.88 53.75-19.6 54.9-17.7L54.9-17.7Q56.05-15.8 56.4-12.45L56.4-12.45Q56.8-8.7 56.8-2.9L56.8-2.9Q56.8-1.3 56.35-1.05L56.35-1.05Q55.95-0.8 55.6-0.8L55.6-0.8Q55.15-0.8 54.77-1.07 54.4-1.35 53.95-1.85L53.95-1.85Q53.5-2.4 53.15-2.55L53.15-2.55ZM45.25-3.15Q47.6-3.85 49.85-5.4L49.85-5.4Q50.35-5.75 50.75-6.3 51.15-6.85 51.25-7L51.25-7Q51.35-7.15 51.42-7.88 51.5-8.6 51.45-9.05L51.45-9.05Q51.4-9.2 51.27-9.85 51.15-10.5 50.9-11L50.9-11Q50.65-11.4 50.1-11.75 49.55-12.1 49.1-12.05L49.1-12.05Q48.15-12 47.05-11.35 45.95-10.7 45-9.6L45-9.6Q44.05-8.45 43.52-7.28 43-6.1 43-5.1L43-5.1Q43.1-3.75 43.75-3.3L43.75-3.3Q44.1-3.05 44.6-3.05L44.6-3.05Q45-3.05 45.25-3.15L45.25-3.15ZM66.8-23.3Q66.7-23 66.07-22.65 65.45-22.3 65.05-22L65.05-22 63.65-22.75Q61.6-23.85 60.85-24.5L60.85-24.5Q60.45-24.8 60.45-25.25L60.45-25.25Q60.45-25.55 60.67-25.78 60.9-26 61.35-26L61.35-26Q63.3-26 66.09-25L66.09-25Q66.4-24.95 66.65-24.33 66.9-23.7 66.8-23.3L66.8-23.3ZM62.3-14Q62.45-14.65 62.5-14.95 62.55-15.25 62.55-15.6L62.55-15.6Q62.55-16.3 62.97-16.7 63.4-17.1 64.59-17.1L64.59-17.1Q66-17.1 67.07-16.23 68.15-15.35 68.4-13.95L68.4-13.95Q68.55-13.25 68.59-12.4 68.65-11.55 68.65-11.3L68.65-11.3 69.34-2.75Q69.5-1.4 68.97-0.68 68.45 0.05 67 0.05L67 0.05Q65.75 0.05 64.87-0.65 64-1.35 63.8-2.45L63.8-2.45 62.5-13.05 62.3-14ZM72.79-18.65Q72.44-19.05 72.32-19.5 72.19-19.95 72.09-20.75L72.09-20.75Q72.54-21.8 73.74-21.8L73.74-21.8Q74.34-21.7 74.59-21.7L74.59-21.7Q75.59-21.7 75.84-22.3 76.09-22.9 76.09-23.7 76.09-24.5 76.09-24.95L76.09-24.95 76.24-27.95Q76.29-28.95 76.37-30.43 76.44-31.9 76.54-33.85L76.54-33.85Q76.59-34.9 77.07-35.4 77.54-35.9 78.39-35.9L78.39-35.9Q78.99-35.9 79.34-35.8L79.34-35.8Q81.39-35.35 82.09-34.5 82.79-33.65 83.04-31.95L83.04-31.95Q83.09-31.6 82.94-30.5L82.94-30.5 82.04-22.7Q81.99-22.4 81.89-21.98 81.79-21.55 81.79-21.35L81.79-21.35Q81.79-20.9 82.29-20.75 82.79-20.6 84.14-20.65L84.14-20.65Q86.44-21.15 87.64-21.3L87.64-21.3Q87.89-21.35 88.44-21.35L88.44-21.35Q89.04-21.35 89.24-21.2L89.24-21.2Q89.44-21.1 89.57-20.63 89.69-20.15 89.69-19.55L89.69-19.55Q89.69-19 89.57-18.55 89.44-18.1 89.24-18.05L89.24-18.05Q87.89-17.65 86.04-17.4L86.04-17.4Q83.84-17 82.79-16.7L82.79-16.7Q82.24-16.55 81.69-15.95 81.14-15.35 81.09-14.85L81.09-14.85Q80.99-12.4 80.94-9.85L80.94-9.85Q80.89-7.9 81.09-5.95L81.09-5.95Q81.24-4.3 81.74-3.58 82.24-2.85 83.24-2.85L83.24-2.85Q84.04-2.85 85.54-3.4L85.54-3.4Q86.34-3.75 86.94-3.75L86.94-3.75Q87.89-3.75 88.29-2.7L88.29-2.7Q88.44-2.35 88.44-2L88.44-2Q88.44-1.35 87.97-0.95 87.49-0.55 86.69-0.25L86.69-0.25Q85.19 0.3 83.64 0.35L83.64 0.35Q81.54 0.35 79.69-0.68 77.84-1.7 76.77-3.55 75.69-5.4 75.84-7.8L75.84-7.8Q75.89-8.75 75.89-10.8L75.89-10.8Q75.89-14.05 75.64-17.4L75.64-17.4Q75.59-17.7 75.29-17.82 74.99-17.95 74.29-18.1L74.29-18.1Q73.14-18.3 72.79-18.65L72.79-18.65ZM100.19-21.2Q100.34-20.7 100.24-19.65L100.24-19.65 99.64-13.75Q99.89-13.95 100.39-15.18 100.89-16.4 101.34-17.18 101.79-17.95 102.04-18.2L102.04-18.2Q104.39-20.45 107.34-20.9 110.29-21.35 113.84-21.3L113.84-21.3Q114.19-21.3 114.62-21.03 115.04-20.75 115.04-20.58 115.04-20.4 114.74-20.03 114.44-19.65 114.19-19.55L114.19-19.55Q111.19-18.55 108.92-17.25 106.64-15.95 104.99-13.85L104.99-13.85Q101.09-8.9 100.49-3.65L100.49-3.65Q100.34-2.25 99.64-1.78 98.94-1.3 97.69-1.3L97.69-1.3Q96.29-1.3 95.19-2.5 94.09-3.7 94.09-5.15L94.09-5.15Q94.14-10.45 94.14-21.05L94.14-21.05Q94.14-22.5 94.79-23.08 95.44-23.65 97.14-23.65L97.14-23.65Q98.39-23.65 99.27-22.95 100.14-22.25 100.19-21.2L100.19-21.2ZM121.79-23.3Q121.69-23 121.06-22.65 120.44-22.3 120.04-22L120.04-22 118.64-22.75Q116.59-23.85 115.84-24.5L115.84-24.5Q115.44-24.8 115.44-25.25L115.44-25.25Q115.44-25.55 115.66-25.78 115.89-26 116.34-26L116.34-26Q118.29-26 121.09-25L121.09-25Q121.39-24.95 121.64-24.33 121.89-23.7 121.79-23.3L121.79-23.3ZM117.29-14Q117.44-14.65 117.49-14.95 117.54-15.25 117.54-15.6L117.54-15.6Q117.54-16.3 117.96-16.7 118.39-17.1 119.59-17.1L119.59-17.1Q120.99-17.1 122.06-16.23 123.14-15.35 123.39-13.95L123.39-13.95Q123.54-13.25 123.59-12.4 123.64-11.55 123.64-11.3L123.64-11.3 124.34-2.75Q124.49-1.4 123.96-0.68 123.44 0.05 121.99 0.05L121.99 0.05Q120.74 0.05 119.86-0.65 118.99-1.35 118.79-2.45L118.79-2.45 117.49-13.05 117.29-14ZM134.14-22.45Q134.14-22.2 134.01-21.28 133.89-20.35 133.89-19.8L133.89-19.8Q133.89-19.4 133.99-19.3L133.99-19.3 135.44-20.7Q136.24-21.6 136.84-22.1L136.84-22.1Q138.14-23.3 139.49-23.3L139.49-23.3Q140.59-23.3 141.14-22.45L141.14-22.45Q141.44-21.95 141.44-21.3L141.44-21.3Q141.44-20.8 141.24-20.55L141.24-20.55Q140.49-19.4 138.53-17.1L138.53-17.1Q137.78-16.3 137.78-15.55L137.78-15.55Q137.78-14.85 138.49-14L138.49-14Q139.09-13.3 140.19-11.9L140.19-11.9Q142.34-9.15 144.01-7.48 145.69-5.8 147.89-4.7L147.89-4.7Q148.14-4.6 148.29-4.23 148.44-3.85 148.39-3.65L148.39-3.65Q148.34-3.4 147.99-3.15 147.64-2.9 147.39-2.95L147.39-2.95Q146.64-3.15 146.14-3.2L146.14-3.2Q143.53-3.7 142.44-4.45L142.44-4.45Q140.64-5.7 137.34-8.8L137.34-8.8Q135.34-10.65 135.28-10.7L135.28-10.7 134.39-11.55Q133.34-12.6 133.34-12.6L133.34-12.6Q133.24-12.35 133.24-11.85L133.24-11.85Q133.24-11.4 133.31-10.88 133.39-10.35 133.34-10.15L133.34-10.15Q133.03-4.55 132.94-1.95L132.94-1.95Q132.84-0.3 132.16 0.55 131.49 1.4 130.28 1.2L130.28 1.2Q129.89 1.15 129.41 0.8 128.94 0.45 128.84 0.1L128.84 0.1Q128.28-2.1 128.28-4.2L128.28-4.2Q128.28-10.25 128.44-16.25L128.44-16.25 128.94-32.55Q128.99-35.2 131.69-35.2L131.69-35.2Q133.53-35.2 134.39-34.5 135.24-33.8 135.14-32.3L135.14-32.3 134.64-27.2Q134.44-25.45 134.14-22.45L134.14-22.45ZM167.58-2.55Q167.13-2.75 166.68-2.75L166.68-2.75Q166.23-2.75 165.91-2.53 165.58-2.3 165.18-1.85L165.18-1.85Q164.58-1.25 163.93-0.85L163.93-0.85Q163.33-0.5 161.73-0.2L161.73-0.2Q161.03-0.1 160.58-0.1L160.58-0.1Q158.48-0.1 156.21-1.03 153.93-1.95 152.98-3.25L152.98-3.25Q151.98-4.65 152.03-6.25L152.03-6.25Q152.08-8.65 154.03-11.05L154.03-11.05Q155.93-13.35 157.51-14.3 159.08-15.25 161.83-15.5L161.83-15.5Q162.43-15.5 163.56-15.7 164.68-15.9 164.68-16.25L164.68-16.25Q164.68-16.95 164.06-17.53 163.43-18.1 161.53-18.1L161.53-18.1Q160.83-18.1 159.43-18L159.43-18Q158.03-17.9 157.48-17.9L157.48-17.9Q155.78-17.9 155.03-18.45L155.03-18.45Q154.83-18.55 154.83-19.4L154.83-19.4Q154.83-20.9 155.88-21.3L155.88-21.3Q158.03-22.1 160.33-22.15L160.33-22.15Q163.23-22.15 165.71-20.88 168.18-19.6 169.33-17.7L169.33-17.7Q170.48-15.8 170.83-12.45L170.83-12.45Q171.23-8.7 171.23-2.9L171.23-2.9Q171.23-1.3 170.78-1.05L170.78-1.05Q170.38-0.8 170.03-0.8L170.03-0.8Q169.58-0.8 169.21-1.07 168.83-1.35 168.38-1.85L168.38-1.85Q167.93-2.4 167.58-2.55L167.58-2.55ZM159.68-3.15Q162.03-3.85 164.28-5.4L164.28-5.4Q164.78-5.75 165.18-6.3 165.58-6.85 165.68-7L165.68-7Q165.78-7.15 165.86-7.88 165.93-8.6 165.88-9.05L165.88-9.05Q165.83-9.2 165.71-9.85 165.58-10.5 165.33-11L165.33-11Q165.08-11.4 164.53-11.75 163.98-12.1 163.53-12.05L163.53-12.05Q162.58-12 161.48-11.35 160.38-10.7 159.43-9.6L159.43-9.6Q158.48-8.45 157.96-7.28 157.43-6.1 157.43-5.1L157.43-5.1Q157.53-3.75 158.18-3.3L158.18-3.3Q158.53-3.05 159.03-3.05L159.03-3.05Q159.43-3.05 159.68-3.15L159.68-3.15ZM175.73-18.65Q175.38-19.05 175.26-19.5 175.13-19.95 175.03-20.75L175.03-20.75Q175.48-21.8 176.68-21.8L176.68-21.8Q177.28-21.7 177.53-21.7L177.53-21.7Q178.53-21.7 178.78-22.3 179.03-22.9 179.03-23.7 179.03-24.5 179.03-24.95L179.03-24.95 179.18-27.95Q179.23-28.95 179.31-30.43 179.38-31.9 179.48-33.85L179.48-33.85Q179.53-34.9 180.01-35.4 180.48-35.9 181.33-35.9L181.33-35.9Q181.93-35.9 182.28-35.8L182.28-35.8Q184.33-35.35 185.03-34.5 185.73-33.65 185.98-31.95L185.98-31.95Q186.03-31.6 185.88-30.5L185.88-30.5 184.98-22.7Q184.93-22.4 184.83-21.98 184.73-21.55 184.73-21.35L184.73-21.35Q184.73-20.9 185.23-20.75 185.73-20.6 187.08-20.65L187.08-20.65Q189.38-21.15 190.58-21.3L190.58-21.3Q190.83-21.35 191.38-21.35L191.38-21.35Q191.98-21.35 192.18-21.2L192.18-21.2Q192.38-21.1 192.51-20.63 192.63-20.15 192.63-19.55L192.63-19.55Q192.63-19 192.51-18.55 192.38-18.1 192.18-18.05L192.18-18.05Q190.83-17.65 188.98-17.4L188.98-17.4Q186.78-17 185.73-16.7L185.73-16.7Q185.18-16.55 184.63-15.95 184.08-15.35 184.03-14.85L184.03-14.85Q183.93-12.4 183.88-9.85L183.88-9.85Q183.83-7.9 184.03-5.95L184.03-5.95Q184.18-4.3 184.68-3.58 185.18-2.85 186.18-2.85L186.18-2.85Q186.98-2.85 188.48-3.4L188.48-3.4Q189.28-3.75 189.88-3.75L189.88-3.75Q190.83-3.75 191.23-2.7L191.23-2.7Q191.38-2.35 191.38-2L191.38-2Q191.38-1.35 190.91-0.95 190.43-0.55 189.63-0.25L189.63-0.25Q188.13 0.3 186.58 0.35L186.58 0.35Q184.48 0.35 182.63-0.68 180.78-1.7 179.71-3.55 178.63-5.4 178.78-7.8L178.78-7.8Q178.83-8.75 178.83-10.8L178.83-10.8Q178.83-14.05 178.58-17.4L178.58-17.4Q178.53-17.7 178.23-17.82 177.93-17.95 177.23-18.1L177.23-18.1Q176.08-18.3 175.73-18.65L175.73-18.65ZM195.73-18.65Q195.38-19.05 195.25-19.5 195.13-19.95 195.03-20.75L195.03-20.75Q195.48-21.8 196.68-21.8L196.68-21.8Q197.28-21.7 197.53-21.7L197.53-21.7Q198.53-21.7 198.78-22.3 199.03-22.9 199.03-23.7 199.03-24.5 199.03-24.95L199.03-24.95 199.18-27.95Q199.23-28.95 199.3-30.43 199.38-31.9 199.48-33.85L199.48-33.85Q199.53-34.9 200-35.4 200.48-35.9 201.33-35.9L201.33-35.9Q201.93-35.9 202.28-35.8L202.28-35.8Q204.33-35.35 205.03-34.5 205.73-33.65 205.98-31.95L205.98-31.95Q206.03-31.6 205.88-30.5L205.88-30.5 204.98-22.7Q204.93-22.4 204.83-21.98 204.73-21.55 204.73-21.35L204.73-21.35Q204.73-20.9 205.23-20.75 205.73-20.6 207.08-20.65L207.08-20.65Q209.38-21.15 210.58-21.3L210.58-21.3Q210.83-21.35 211.38-21.35L211.38-21.35Q211.98-21.35 212.18-21.2L212.18-21.2Q212.38-21.1 212.5-20.63 212.63-20.15 212.63-19.55L212.63-19.55Q212.63-19 212.5-18.55 212.38-18.1 212.18-18.05L212.18-18.05Q210.83-17.65 208.98-17.4L208.98-17.4Q206.78-17 205.73-16.7L205.73-16.7Q205.18-16.55 204.63-15.95 204.08-15.35 204.03-14.85L204.03-14.85Q203.93-12.4 203.88-9.85L203.88-9.85Q203.83-7.9 204.03-5.95L204.03-5.95Q204.18-4.3 204.68-3.58 205.18-2.85 206.18-2.85L206.18-2.85Q206.98-2.85 208.48-3.4L208.48-3.4Q209.28-3.75 209.88-3.75L209.88-3.75Q210.83-3.75 211.23-2.7L211.23-2.7Q211.38-2.35 211.38-2L211.38-2Q211.38-1.35 210.9-0.95 210.43-0.55 209.63-0.25L209.63-0.25Q208.13 0.3 206.58 0.35L206.58 0.35Q204.48 0.35 202.63-0.68 200.78-1.7 199.7-3.55 198.63-5.4 198.78-7.8L198.78-7.8Q198.83-8.75 198.83-10.8L198.83-10.8Q198.83-14.05 198.58-17.4L198.58-17.4Q198.53-17.7 198.23-17.82 197.93-17.95 197.23-18.1L197.23-18.1Q196.08-18.3 195.73-18.65L195.73-18.65ZM231.78-2.55Q231.33-2.75 230.88-2.75L230.88-2.75Q230.43-2.75 230.1-2.53 229.78-2.3 229.38-1.85L229.38-1.85Q228.78-1.25 228.13-0.85L228.13-0.85Q227.53-0.5 225.93-0.2L225.93-0.2Q225.23-0.1 224.78-0.1L224.78-0.1Q222.68-0.1 220.4-1.03 218.13-1.95 217.18-3.25L217.18-3.25Q216.18-4.65 216.23-6.25L216.23-6.25Q216.28-8.65 218.23-11.05L218.23-11.05Q220.13-13.35 221.7-14.3 223.28-15.25 226.03-15.5L226.03-15.5Q226.63-15.5 227.75-15.7 228.88-15.9 228.88-16.25L228.88-16.25Q228.88-16.95 228.25-17.53 227.63-18.1 225.73-18.1L225.73-18.1Q225.03-18.1 223.63-18L223.63-18Q222.23-17.9 221.68-17.9L221.68-17.9Q219.98-17.9 219.23-18.45L219.23-18.45Q219.03-18.55 219.03-19.4L219.03-19.4Q219.03-20.9 220.08-21.3L220.08-21.3Q222.23-22.1 224.53-22.15L224.53-22.15Q227.43-22.15 229.9-20.88 232.38-19.6 233.53-17.7L233.53-17.7Q234.68-15.8 235.03-12.45L235.03-12.45Q235.43-8.7 235.43-2.9L235.43-2.9Q235.43-1.3 234.98-1.05L234.98-1.05Q234.58-0.8 234.23-0.8L234.23-0.8Q233.78-0.8 233.4-1.07 233.03-1.35 232.58-1.85L232.58-1.85Q232.13-2.4 231.78-2.55L231.78-2.55ZM223.88-3.15Q226.23-3.85 228.48-5.4L228.48-5.4Q228.98-5.75 229.38-6.3 229.78-6.85 229.88-7L229.88-7Q229.98-7.15 230.05-7.88 230.13-8.6 230.08-9.05L230.08-9.05Q230.03-9.2 229.9-9.85 229.78-10.5 229.53-11L229.53-11Q229.28-11.4 228.73-11.75 228.18-12.1 227.73-12.05L227.73-12.05Q226.78-12 225.68-11.35 224.58-10.7 223.63-9.6L223.63-9.6Q222.68-8.45 222.15-7.28 221.63-6.1 221.63-5.1L221.63-5.1Q221.73-3.75 222.38-3.3L222.38-3.3Q222.73-3.05 223.23-3.05L223.23-3.05Q223.63-3.05 223.88-3.15L223.88-3.15Z" fill="#000000" data-fill-palette-color="primary"></path></g></svg></g></svg></g><g transform="matrix(1,0,0,1,75.54432,73.62480492787401)"><svg viewBox="0 0 244.43135999999998 20.270704513858334" height="20.270704513858334" width="244.43135999999998"><g transform="matrix(1,0,0,1,0,0)"><svg width="244.43135999999998" viewBox="2 -37.5 454.56 37.7" height="20.270704513858334" data-palette-color="#1abdde"><path d="M5.45-22.5L2-22.5 2-25 12.5-25 12.5-22.5 9.15-22.5 14.7-4.05 21.25-24.75 24.45-25 29.95-4.05 36.4-22.5 33-22.5 33-25 43-25 43-22.5 40.1-22.5 31.55 0 28.55 0 22.7-19.85 15.95 0 12.95 0 5.45-22.5ZM71.5 0L61.4 0 61.4-2.5 64.45-2.5 64.45-17.1Q64.45-18.85 63.72-19.95 63-21.05 61.85-21.4L61.85-21.4Q59.95-22.05 58.75-21.95L58.75-21.95Q55.5-21.85 51.6-19.65L51.6-19.65 51.6-2.5 55.4-2.5 55.4 0 45.3 0 45.3-2.5 48.35-2.5 48.35-35 45-35 45-37.5 51.6-37.5 51.6-21.9Q58.15-26.4 63.45-24.7L63.45-24.7Q64.65-24.35 65.52-23.68 66.4-23 67.05-21.65 67.7-20.3 67.7-18.4L67.7-18.4 67.7-2.5 71.5-2.5 71.5 0ZM75.85-11.2L75.85-11.2Q75.85-6.75 78.4-4.73 80.95-2.7 84.35-2.7L84.35-2.7Q86.55-2.7 88.87-3.13 91.2-3.55 91.95-3.9L91.95-3.9 92.6-1.55Q91.45-0.8 88.82-0.3 86.2 0.2 84.02 0.2 81.85 0.2 80.12-0.25 78.4-0.7 76.6-1.85 74.8-3 73.75-5.45 72.7-7.9 72.7-11.45L72.7-11.45Q72.7-18.05 76.1-21.55L76.1-21.55Q79.65-25.2 84.35-25.2 89.05-25.2 91.52-22.6 94-20 94-15.3L94-15.3Q94-14.3 93.85-13.15L93.85-13.15 76-13.15Q75.85-12.1 75.85-11.2ZM91-15.65L91-15.65Q91-18.75 89.15-20.43 87.3-22.1 84.85-22.1L84.85-22.1Q81.5-22.1 79.3-20.08 77.1-18.05 76.35-15.1L76.35-15.1 91-15.1Q91-15.4 91-15.65ZM103.79-16.75L103.79-2.5 107.94-2.5 107.94 0 97.44 0 97.44-2.5 100.54-2.5 100.54-22.5 97.19-22.5 97.19-25 103.79-25 103.79-18.95Q107.74-24.75 111.54-24.85L111.54-24.85Q111.84-24.85 112.14-24.85L112.14-24.85 114.94-24.5 113.64-21.5Q112.69-21.95 111.19-21.95L111.19-21.95Q107.59-21.9 103.79-16.75L103.79-16.75ZM119.64-11.2L119.64-11.2Q119.64-6.75 122.19-4.73 124.74-2.7 128.14-2.7L128.14-2.7Q130.34-2.7 132.67-3.13 134.99-3.55 135.74-3.9L135.74-3.9 136.39-1.55Q135.24-0.8 132.62-0.3 129.99 0.2 127.82 0.2 125.64 0.2 123.92-0.25 122.19-0.7 120.39-1.85 118.59-3 117.54-5.45 116.49-7.9 116.49-11.45L116.49-11.45Q116.49-18.05 119.89-21.55L119.89-21.55Q123.44-25.2 128.14-25.2 132.84-25.2 135.31-22.6 137.79-20 137.79-15.3L137.79-15.3Q137.79-14.3 137.64-13.15L137.64-13.15 119.79-13.15Q119.64-12.1 119.64-11.2ZM134.79-15.65L134.79-15.65Q134.79-18.75 132.94-20.43 131.09-22.1 128.64-22.1L128.64-22.1Q125.29-22.1 123.09-20.08 120.89-18.05 120.14-15.1L120.14-15.1 134.79-15.1Q134.79-15.4 134.79-15.65ZM158.89-8.05L159.14-3.25Q161.24-2.6 162.51-2.6 163.79-2.6 164.19-2.65L164.19-2.65Q166.79-2.7 168.54-3.75 170.29-4.8 170.29-6.7 170.29-8.6 168.91-9.65 167.54-10.7 165.59-11.25 163.64-11.8 161.69-12.45 159.74-13.1 158.36-14.5 156.99-15.9 156.99-18.15L156.99-18.15Q156.99-21.35 159.44-23.28 161.89-25.2 165.64-25.2L165.64-25.2Q168.44-25.2 171.29-24.2L171.29-24.2 172.19-23.85 172.19-18.1 169.74-17.75 169.54-22Q167.54-22.3 166.19-22.3L166.19-22.3Q163.44-22.3 161.84-21.23 160.24-20.15 160.24-18.48 160.24-16.8 161.61-15.85 162.99-14.9 164.94-14.35 166.89-13.8 168.84-13.13 170.79-12.45 172.16-10.93 173.54-9.4 173.54-6.95L173.54-6.95Q173.54-3.65 171.06-1.73 168.59 0.2 164.04 0.2 159.49 0.2 156.49-1.95L156.49-1.95 156.49-7.7 158.89-8.05ZM190.53-22.3L190.53-22.3Q186.28-22.3 183.66-19.48 181.03-16.65 181.03-11.55L181.03-11.55Q181.03-2.7 189.28-2.7L189.28-2.7Q192.48-2.7 194.63-3.23 196.78-3.75 196.98-3.9L196.98-3.9 197.68-1.55Q196.53-0.8 193.88-0.3 191.23 0.2 189.08 0.2 186.93 0.2 185.18-0.25 183.43-0.7 181.66-1.85 179.88-3 178.83-5.48 177.78-7.95 177.78-11.5L177.78-11.5Q177.78-18.05 181.13-21.4L181.13-21.4Q184.88-25.25 190.58-25.25L190.58-25.25Q192.38-25.25 194.41-24.78 196.43-24.3 197.53-23.3L197.53-23.3 197.53-16.75 195.08-16.4 194.83-21.65Q192.78-22.3 190.53-22.3ZM227.88 0L217.78 0 217.78-2.5 220.83-2.5 220.83-17.1Q220.83-18.85 220.11-19.95 219.38-21.05 218.23-21.4L218.23-21.4Q216.33-22.05 215.13-21.95L215.13-21.95Q211.88-21.85 207.98-19.65L207.98-19.65 207.98-2.5 211.78-2.5 211.78 0 201.68 0 201.68-2.5 204.73-2.5 204.73-35 201.38-35 201.38-37.5 207.98-37.5 207.98-21.9Q214.53-26.4 219.83-24.7L219.83-24.7Q221.03-24.35 221.91-23.68 222.78-23 223.43-21.65 224.08-20.3 224.08-18.4L224.08-18.4 224.08-2.5 227.88-2.5 227.88 0ZM240.95 0.2Q235.73 0.2 232.5-2.8 229.28-5.8 229.28-11.98 229.28-18.15 232.7-21.68 236.13-25.2 241.33-25.2 246.53-25.2 249.78-22.2 253.03-19.2 253.03-13.03 253.03-6.85 249.6-3.33 246.18 0.2 240.95 0.2ZM241.25-22.3Q237.53-22.3 235.03-19.6 232.53-16.9 232.53-12.28 232.53-7.65 234.9-5.18 237.28-2.7 241.03-2.7 244.78-2.7 247.28-5.38 249.78-8.05 249.78-12.68 249.78-17.3 247.38-19.8 244.98-22.3 241.25-22.3ZM259.63-35L256.28-35 256.28-37.5 262.88-37.5 262.88-2.5 266.63-2.5 266.63 0 256.53 0 256.53-2.5 259.63-2.5 259.63-35ZM275.72 0.2L275.72 0.2Q269.07 0.2 268.67-5.05L268.67-5.05Q268.62-5.4 268.62-5.75L268.62-5.75Q268.62-9.95 273.67-11.35L273.67-11.35Q276.47-12.05 284.47-12.95L284.47-12.95 284.47-16.8Q284.47-22.25 278.77-22.25L278.77-22.25Q274.67-22.2 270.07-20.35L270.07-20.35 269.22-22.5 269.72-22.7Q273.62-24.4 275.67-24.75 277.72-25.1 278.67-25.13 279.62-25.15 280.5-25.1 281.37-25.05 282.77-24.65 284.17-24.25 285.2-23.53 286.22-22.8 286.97-21.35 287.72-19.9 287.72-17.9L287.72-17.9 287.72-2.5 291.57-2.5 291.57 0 284.97 0 284.47-1.9Q279.97 0.2 275.72 0.2ZM276.62-2.1L276.62-2.1Q280.42-2.1 284.47-3.8L284.47-3.8 284.47-10.95Q276.97-10.7 274.77-9.95L274.77-9.95Q273.07-9.5 272.37-8.33 271.67-7.15 271.67-6.45 271.67-5.75 271.67-5.5L271.67-5.5Q271.82-3.7 273.22-2.9 274.62-2.1 276.62-2.1ZM300.12-16.75L300.12-2.5 304.27-2.5 304.27 0 293.77 0 293.77-2.5 296.87-2.5 296.87-22.5 293.52-22.5 293.52-25 300.12-25 300.12-18.95Q304.07-24.75 307.87-24.85L307.87-24.85Q308.17-24.85 308.47-24.85L308.47-24.85 311.27-24.5 309.97-21.5Q309.02-21.95 307.52-21.95L307.52-21.95Q303.92-21.9 300.12-16.75L300.12-16.75ZM317.17-8.05L317.42-3.25Q319.52-2.6 320.79-2.6 322.07-2.6 322.47-2.65L322.47-2.65Q325.07-2.7 326.82-3.75 328.57-4.8 328.57-6.7 328.57-8.6 327.19-9.65 325.82-10.7 323.87-11.25 321.92-11.8 319.97-12.45 318.02-13.1 316.64-14.5 315.27-15.9 315.27-18.15L315.27-18.15Q315.27-21.35 317.72-23.28 320.17-25.2 323.92-25.2L323.92-25.2Q326.72-25.2 329.57-24.2L329.57-24.2 330.47-23.85 330.47-18.1 328.02-17.75 327.82-22Q325.82-22.3 324.47-22.3L324.47-22.3Q321.72-22.3 320.12-21.23 318.52-20.15 318.52-18.48 318.52-16.8 319.89-15.85 321.27-14.9 323.22-14.35 325.17-13.8 327.12-13.13 329.07-12.45 330.44-10.93 331.82-9.4 331.82-6.95L331.82-6.95Q331.82-3.65 329.34-1.73 326.87 0.2 322.32 0.2 317.77 0.2 314.77-1.95L314.77-1.95 314.77-7.7 317.17-8.05ZM376.61 0L366.51 0 366.51-2.5 369.61-2.5 369.61-17.2Q369.61-22.05 364.21-22.05L364.21-22.05Q361.36-22 357.81-20.15L357.81-20.15 357.81-2.5 361.61-2.5 361.61 0 351.51 0 351.51-2.5 354.56-2.5 354.56-22.5 351.26-22.5 351.26-25 357.86-25 357.86-22.5 357.81-22.5 357.81-22.35Q361.96-24.95 365.41-25.15L365.41-25.15Q370.16-25.15 371.86-22.45L371.86-22.45Q376.21-24.95 380.06-25.15L380.06-25.15Q383.56-25.15 385.36-23.7L385.36-23.7Q386.21-23.05 386.84-21.68 387.46-20.3 387.46-18.4L387.46-18.4 387.46-2.5 391.16-2.5 391.16 0 381.06 0 381.06-2.5 384.21-2.5 384.21-17.15Q384.21-22.05 378.86-22.05L378.86-22.05Q375.96-22 372.71-20.25L372.71-20.25Q372.86-19.4 372.86-18.4L372.86-18.4 372.86-2.5 376.61-2.5 376.61 0ZM396.61-11.2L396.61-11.2Q396.61-6.75 399.16-4.73 401.71-2.7 405.11-2.7L405.11-2.7Q407.31-2.7 409.64-3.13 411.96-3.55 412.71-3.9L412.71-3.9 413.36-1.55Q412.21-0.8 409.59-0.3 406.96 0.2 404.79 0.2 402.61 0.2 400.89-0.25 399.16-0.7 397.36-1.85 395.56-3 394.51-5.45 393.46-7.9 393.46-11.45L393.46-11.45Q393.46-18.05 396.86-21.55L396.86-21.55Q400.41-25.2 405.11-25.2 409.81-25.2 412.29-22.6 414.76-20 414.76-15.3L414.76-15.3Q414.76-14.3 414.61-13.15L414.61-13.15 396.76-13.15Q396.61-12.1 396.61-11.2ZM411.76-15.65L411.76-15.65Q411.76-18.75 409.91-20.43 408.06-22.1 405.61-22.1L405.61-22.1Q402.26-22.1 400.06-20.08 397.86-18.05 397.11-15.1L397.11-15.1 411.76-15.1Q411.76-15.4 411.76-15.65ZM421.91-11.2L421.91-11.2Q421.91-6.75 424.46-4.73 427.01-2.7 430.41-2.7L430.41-2.7Q432.61-2.7 434.93-3.13 437.26-3.55 438.01-3.9L438.01-3.9 438.66-1.55Q437.51-0.8 434.88-0.3 432.26 0.2 430.08 0.2 427.91 0.2 426.18-0.25 424.46-0.7 422.66-1.85 420.86-3 419.81-5.45 418.76-7.9 418.76-11.45L418.76-11.45Q418.76-18.05 422.16-21.55L422.16-21.55Q425.71-25.2 430.41-25.2 435.11-25.2 437.58-22.6 440.06-20 440.06-15.3L440.06-15.3Q440.06-14.3 439.91-13.15L439.91-13.15 422.06-13.15Q421.91-12.1 421.91-11.2ZM437.06-15.65L437.06-15.65Q437.06-18.75 435.21-20.43 433.36-22.1 430.91-22.1L430.91-22.1Q427.56-22.1 425.36-20.08 423.16-18.05 422.41-15.1L422.41-15.1 437.06-15.1Q437.06-15.4 437.06-15.65ZM454.46-2.45L454.46-2.45 456.41-2.55 456.56-0.55Q456.51-0.55 455.86-0.4L455.86-0.4Q454.36-0.05 452.51-0.05L452.51-0.05Q450.81-0.15 449.41-0.63 448.01-1.1 446.81-2.63 445.61-4.15 445.61-6.55L445.61-6.55 445.61-22.1 443.06-22.1 443.46-24.5 445.66-24.95 446.06-29.75 448.86-30 448.86-25 454.91-25 454.91-22.1 448.86-22.1 448.86-7.4Q448.86-2.45 454.46-2.45Z" opacity="1" transform="matrix(1,0,0,1,0,0)" fill="#1abdde" class="undefined-text-1" data-fill-palette-color="secondary" id="text-1"></path></svg></g></svg></g></svg></g></svg></g><g transform="matrix(1,0,0,1,136.40314655510167,0)"><svg viewBox="0 0 122.71370688979665 129.76359404847412" height="129.76359404847412" width="122.71370688979665"><g><svg  version="1.1" x="0" y="0" viewBox="8.667 7.189557496108699 83.00104293720452 87.7694425038913" enable-background="new 0 0 100 100"  height="129.76359404847412" width="122.71370688979665" class="icon-icon-0" data-fill-palette-color="accent" id="icon-0"><g fill="#187ee7" data-fill-palette-color="accent"><path fill="#187ee7" d="M30.291 94.959L8.667 73.387l9.857-9.881 21.625 21.572L30.291 94.959zM23.337 64.651l15.735 15.39 8.372-8.54c0 0 24.354 0.708 26.691 0 1.381-0.743 16.991-20.319 17.487-22.514 0.177-1.133-0.177-1.274-0.708-1.982-0.531-0.708-1.593-1.274-2.832-1.133s-1.876 0.566-2.62 0.991c-0.743 0.425-14.337 14.332-15.505 15.292-1.133 0.531-14.23 0.106-15.151-0.071-0.92-0.177-1.378-0.613-1.609-1.563-0.232-0.95-0.018-2.518 0.335-2.897 0.352-0.379 0.177-0.566 1.062-0.991 0.885-0.425 14.053 0.283 15.221 0 1.168-0.283 1.593-0.602 2.124-1.558 0.531-0.956 0.496-2.973-0.071-3.823-0.319-0.673-1.168-1.239-2.053-1.487s-27.93-0.566-31.646 0.566C34.31 51.43 23.337 64.651 23.337 64.651zM83.5 20.257c0.057 8.189-7.568 11.049-12.49 14.524-4.501 3.178-8.356 7.644-8.821 9.456-0.542-1.849-4.003-6.192-8.866-9.367-5.015-3.274-12.547-6.335-12.49-14.523 0.103-14.91 15.8-17.908 21.323-5.062C67.425 2.951 83.396 5.309 83.5 20.257z" data-fill-palette-color="accent"></path></g></svg></g></svg></g><g></g></svg></g></svg></g></svg></g><defs></defs></svg><rect width="395.52" height="233.0346170794978" fill="none" stroke="none" visibility="hidden"></rect></g></svg></g></svg>